<svg width="40" height="40" viewBox="0 0 40 40" fill="none" xmlns="http://www.w3.org/2000/svg">
<rect width="40" height="40" rx="5" fill="#F1F3F9"/>
<path fill-rule="evenodd" clip-rule="evenodd" d="M19.7222 14.1667C18.9551 14.1667 18.3333 14.7885 18.3333 15.5556C18.3333 16.3226 18.9551 16.9445 19.7222 16.9445C20.4893 16.9445 21.1111 16.3226 21.1111 15.5556C21.1111 14.7885 20.4893 14.1667 19.7222 14.1667ZM19.7222 18.6112C18.9551 18.6112 18.3333 19.233 18.3333 20.0001C18.3333 20.7672 18.9551 21.389 19.7222 21.389C20.4893 21.389 21.1111 20.7672 21.1111 20.0001C21.1111 19.233 20.4893 18.6112 19.7222 18.6112ZM18.3333 24.8611C18.3333 24.0941 18.9551 23.4722 19.7222 23.4722C20.4893 23.4722 21.1111 24.0941 21.1111 24.8611C21.1111 25.6282 20.4893 26.25 19.7222 26.25C18.9551 26.25 18.3333 25.6282 18.3333 24.8611Z" fill="#1D2433" fill-opacity="0.75"/>
</svg>
