<svg width="40" height="40" viewBox="0 0 40 40" fill="none" xmlns="http://www.w3.org/2000/svg">
<rect width="40" height="40" rx="5" fill="#F1F3F9"/>
<path fill-rule="evenodd" clip-rule="evenodd" d="M12.4886 13.487C12.591 13.2662 12.8122 13.125 13.0556 13.125H26.9444C27.1878 13.125 27.409 13.2662 27.5114 13.487C27.6138 13.7077 27.5788 13.9678 27.4217 14.1536L22.0139 20.5483V26.25C22.0139 26.4666 21.9017 26.6678 21.7175 26.7817C21.5332 26.8955 21.3031 26.9059 21.1094 26.809L18.3316 25.4201C18.1199 25.3143 17.9861 25.0978 17.9861 24.8611V20.5483L12.5783 14.1536C12.4212 13.9678 12.3862 13.7077 12.4886 13.487ZM14.4026 14.375L19.0883 19.9159C19.1838 20.0287 19.2361 20.1717 19.2361 20.3194V24.4748L20.7639 25.2387V20.3194C20.7639 20.1717 20.8162 20.0287 20.9117 19.9159L25.5974 14.375H14.4026Z" fill="#1D2433" fill-opacity="0.75"/>
</svg>
